#!OML:ASF H:\MichaelJackson\Top Level 1\Subject 1\Session 1\male.ASF
:FULLY-SPECIFIED
:DEGREES
68
root 5.92033 16.7673 -28.0965 10.9989 2.83049 -3.92376
lowerback -3.43149 2.53477 3.36143
upperback -1.37197 3.27365 -0.156015
thorax 0.708998 1.63167 -1.90529
lowerneck -10.0478 -2.41801 2.21515
upperneck -5.65788 -3.37819 2.01077
head -0.105672 -1.70669 0.159961
rclavicle -4.34841e-015 -4.77083e-015
rhumerus -39.0178 2.50661 -91.9283
rradius 42.1746
rwrist 8.5786
rhand -25.1733 -21.6229
rfingers 7.12502
rthumb 1.34421 -51.5984
lclavicle -4.34841e-015 -4.77083e-015
lhumerus -40.3903 -11.5516 93.7776
lradius 43.9713
lwrist 7.85936
lhand -13.4142 1.75949
lfingers 7.12502
lthumb 12.6939 31.3537
rfemur -17.0212 -0.204939 21.9678
rtibia 30.2066
rfoot -26.3299 -18.2489
rtoes -10.3671
lfemur -36.028 15.9748 -17.8882
ltibia 53.613
lfoot -21.1648 -11.23
ltoes 31.502
69
root 5.93185 16.7688 -28.0767 11.1437 2.88312 -4.0309
lowerback -3.47809 2.58787 3.33406
upperback -1.424 3.34424 -0.1176
thorax 0.681868 1.66605 -1.84666
lowerneck -10.0629 -2.44703 2.29909
upperneck -5.71302 -3.4248 1.95152
head -0.123041 -1.73247 0.127622
rclavicle 7.45443e-017 -2.88238e-014
rhumerus -38.8 2.80057 -91.8634
rradius 42.0963
rwrist 8.9516
rhand -25.2296 -21.5004
rfingers 7.12502
rthumb 1.28978 -51.4762
lclavicle 7.45443e-017 -2.88238e-014
lhumerus -40.4667 -11.1219 93.5979
lradius 43.9956
lwrist 7.97201
lhand -14.0257 1.65066
lfingers 7.12502
lthumb 12.1044 31.2805
rfemur -17.0218 -0.0274186 22.0464
rtibia 30.0729
rfoot -26.0299 -18.4778
rtoes -11.0191
lfemur -36.716 16.2144 -17.7435
ltibia 53.7972
lfoot -21.1171 -10.3645
ltoes 30.5255
70
root 5.94372 16.7707 -28.0555 11.3943 2.94821 -4.13343
lowerback -3.63478 2.64074 3.27791
upperback -1.51209 3.41202 -0.0818135
thorax 0.677333 1.69906 -1.77049
lowerneck -10.0704 -2.48019 2.39527
upperneck -5.76399 -3.47815 1.88723
head -0.14069 -1.76187 0.0917104
rclavicle 5.98839e-015 -4.77083e-015
rhumerus -38.5767 3.04629 -91.7874
rradius 42.0181
rwrist 9.26242
rhand -25.2727 -21.4114
rfingers 7.12502
rthumb 1.24824 -51.3875
lclavicle 5.98839e-015 -4.77083e-015
lhumerus -40.5677 -10.7111 93.4157
lradius 44.0205
lwrist 8.09496
lhand -14.6012 1.56192
lfingers 7.12502
lthumb 11.5494 31.2237
rfemur -17.1372 0.193225 22.1233
rtibia 29.9519
rfoot -25.7215 -18.7517
rtoes -11.5958
lfemur -37.4801 16.3837 -17.6139
ltibia 53.8352
lfoot -21.0767 -9.3002
ltoes 29.4324
71
root 5.95592 16.7725 -28.0329 11.762 3.02456 -4.23384
lowerback -3.91329 2.69625 3.19595
upperback -1.63846 3.48055 -0.04948
thorax 0.699906 1.73256 -1.67835
lowerneck -10.077 -2.51901 2.50017
upperneck -5.80727 -3.54008 1.82153
head -0.15636 -1.79564 0.0536981
rclavicle -1.10325e-014 -1.41137e-014
rhumerus -38.3535 3.24127 -91.7011
rradius 41.9544
rwrist 9.48337
rhand -25.2967 -21.365
rfingers 7.12502
rthumb 1.22504 -51.3413
lclavicle -1.10325e-014 -1.41137e-014
lhumerus -40.688 -10.3323 93.2334
lradius 44.0463
lwrist 8.22233
lhand -15.1037 1.48866
lfingers 7.12502
lthumb 11.0647 31.177
rfemur -17.3841 0.448621 22.1998
rtibia 29.8487
rfoot -25.4326 -19.0615
rtoes -12.0519
lfemur -38.3353 16.4833 -17.4987
ltibia 53.7365
lfoot -21.0139 -8.06127
ltoes 28.2401
72
root 5.96875 16.7737 -28.0089 12.225 3.10694 -4.33428
lowerback -4.29431 2.75722 3.09584
upperback -1.79578 3.55431 -0.0215998
thorax 0.746891 1.76882 -1.57574
lowerneck -10.091 -2.56436 2.6086
upperneck -5.83646 -3.61151 1.76011
head -0.166558 -1.83394 0.0159001
rclavicle 7.49915e-014 1.43125e-014
rhumerus -38.1365 3.38561 -91.6055
rradius 41.9166
rwrist 9.60013
rhand -25.3007 -21.3636
rfingers 7.12502
rthumb 1.22117 -51.3398
lclavicle 7.49915e-014 1.43125e-014
lhumerus -40.822 -9.99613 93.0527
lradius 44.0725
lwrist 8.34797
lhand -15.5002 1.42717
lfingers 7.12502
lthumb 10.6823 31.1356
rfemur -17.7389 0.720894 22.2744
rtibia 29.7619
rfoot -25.1987 -19.3877
rtoes -12.3491
lfemur -39.2532 16.5134 -17.3867
ltibia 53.5122
lfoot -20.9115 -6.68167
ltoes 26.9808
73
root 5.98282 16.774 -27.9829 12.7254 3.18795 -4.43601
lowerback -4.72446 2.82566 2.98875
upperback -1.96656 3.63752 0.00158862
thorax 0.807157 1.80996 -1.47078
lowerneck -10.1186 -2.61662 2.71443
upperneck -5.84617 -3.69258 1.70826
head -0.168473 -1.87656 -0.0192893
rclavicle -4.6615e-014 -1.39149e-014
rhumerus -37.9317 3.48364 -91.5011
rradius 41.9134
rwrist 9.61126
rhand -25.2853 -21.405
rfingers 7.12502
rthumb 1.23599 -51.3812
lclavicle -4.6615e-014 -1.39149e-014
lhumerus -40.965 -9.70938 92.8762
lradius 44.0986
lwrist 8.46577
lhand -15.7642 1.37344
lfingers 7.12502
lthumb 10.4277 31.0948
rfemur -18.1329 0.982652 22.3438
rtibia 29.6817
rfoot -25.0556 -19.7026
rtoes -12.4628
lfemur -40.1603 16.4728 -17.2555
ltibia 53.1737
lfoot -20.7668 -5.20576
ltoes 25.6979
74
root 5.99885 16.7731 -27.9545 13.1803 3.26299 -4.54037
lowerback -5.12645 2.90201 2.88854
upperback -2.12662 3.73254 0.0208789
thorax 0.863295 1.85712 -1.37329
lowerneck -10.1624 -2.6763 2.81408
upperneck -5.83426 -3.78371 1.66792
head -0.160932 -1.92358 -0.050824
rclavicle -3.65267e-014 1.31198e-014
rhumerus -37.7448 3.54198 -91.3881
rradius 41.9501
rwrist 9.5256
rhand -25.2541 -21.4797
rfingers 7.12502
rthumb 1.26619 -51.4557
lclavicle -3.65267e-014 1.31198e-014
lhumerus -41.113 -9.47517 92.7059
lradius 44.1241
lwrist 8.57042
lhand -15.8796 1.33064
lfingers 7.12502
lthumb 10.3163 31.0576
rfemur -18.4645 1.2013 22.4072
rtibia 29.5916
rfoot -25.0293 -19.9782
rtoes -12.3945
lfemur -40.9532 16.3581 -17.0743
ltibia 52.7341
lfoot -20.5862 -3.68635
ltoes 24.4446
75
root 6.01757 16.7709 -27.923 13.5049 3.33229 -4.64846
lowerback -5.42019 2.98486 2.80852
upperback -2.2516 3.83892 0.0384102
thorax 0.896546 1.91 -1.29203
lowerneck -10.2216 -2.74361 2.9044
upperneck -5.80148 -3.88485 1.63962
head -0.144244 -1.97491 -0.0780467
rclavicle -5.2181e-016 1.86858e-014
rhumerus -37.5801 3.5697 -91.2664
rradius 42.0287
rwrist 9.35953
rhand -25.2093 -21.5758
rfingers 7.12502
rthumb 1.30938 -51.5515
lclavicle -5.2181e-016 1.86858e-014
lhumerus -41.2633 -9.29231 92.5435
lradius 44.1492
lwrist 8.65803
lhand -15.8401 1.30327
lfingers 7.12502
lthumb 10.3544 31.0283
rfemur -18.6256 1.34316 22.4665
rtibia 29.4685
rfoot -25.1268 -20.1892
rtoes -12.1726
lfemur -41.5266 16.1613 -16.8101
ltibia 52.2076
lfoot -20.3832 -2.18325
ltoes 23.2929
76
root 6.03951 16.7675 -27.8881 13.6375 3.39919 -4.76202
lowerback -5.54617 3.07159 2.75936
upperback -2.32497 3.95392 0.0576228
thorax 0.89146 1.96715 -1.23269
lowerneck -10.291 -2.81821 2.98304
upperneck -5.75102 -3.99513 1.62152
head -0.120177 -2.03016 -0.101031
rclavicle 2.42517e-014 4.57205e-015
rhumerus -37.4417 3.57831 -91.1347
rradius 42.1486
rwrist 9.13269
rhand -25.1524 -21.6789
rfingers 7.12502
rthumb 1.3644 -51.6543
lclavicle 2.42517e-014 4.57205e-015
lhumerus -41.4159 -9.15391 92.3902
lradius 44.1756
lwrist 8.72743
lhand -15.6482 1.29975
lfingers 7.12502
lthumb 10.5396 31.0155
rfemur -18.5381 1.37738 22.5264
rtibia 29.2957
rfoot -25.3397 -20.3137
rtoes -11.8433
lfemur -41.808 15.874 -16.4394
ltibia 51.6108
lfoot -20.1743 -0.755286
ltoes 22.3067
77
root 6.06543 16.7629 -27.8491 13.4869 3.4661 -4.88166
lowerback -5.41774 3.15868 2.75409
upperback -2.32162 4.07432 0.0829696
thorax 0.826478 2.02682 -1.20297
lowerneck -10.362 -2.89974 3.04926
upperneck -5.68849 -4.11363 1.60993
head -0.0918552 -2.089 -0.120559
rclavicle -3.15571e-015 2.06736e-014
rhumerus -37.3326 3.57778 -90.9905
rradius 42.3081
rwrist 8.86583
rhand -25.0821 -21.7732
rfingers 7.12502
rthumb 1.43232 -51.7481
lclavicle -3.15571e-015 2.06736e-014
lhumerus -41.5726 -9.05028 92.2475
lradius 44.2065
lwrist 8.78062
lhand -15.3132 1.33021
lfingers 7.12502
lthumb 10.8627 31.0293
rfemur -18.0929 1.27082 22.5877
rtibia 29.0632
rfoot -25.6487 -20.33
rtoes -11.4788
lfemur -41.6928 15.4824 -15.9362
ltibia 50.9614
lfoot -19.9842 0.550229
ltoes 21.5341
78
root 6.09485 16.7571 -27.8067 13.1351 3.53513 -5.01309
lowerback -5.11333 3.24657 2.78724
upperback -2.266 4.19889 0.117514
thorax 0.719507 2.08838 -1.19404
lowerneck -10.4261 -2.98765 3.10389
upperneck -5.6195 -4.23938 1.60034
head -0.0624547 -2.15114 -0.137887
rclavicle 2.34317e-014 -1.19271e-015
rhumerus -37.2547 3.57508 -90.8297
rradius 42.504
rwrist 8.58204
rhand -24.9927 -21.8398
rfingers 7.12502
rthumb 1.5186 -51.8141
lclavicle 2.34317e-014 -1.19271e-015
lhumerus -41.7361 -8.97027 92.116
lradius 44.246
lwrist 8.8238
lhand -14.8493 1.40219
lfingers 7.12502
lthumb 11.3101 31.0772
rfemur -17.3881 1.00982 22.6557
rtibia 28.7739
rfoot -26.0104 -20.2173
rtoes -11.1354
lfemur -41.2921 14.9944 -15.326
ltibia 50.2778
lfoot -19.8111 1.68624
ltoes 20.9875
79
root 6.12753 16.7503 -27.7614 12.6358 3.607 -5.15949
lowerback -4.68533 3.33476 2.8543
upperback -2.17423 4.32624 0.163588
thorax 0.582543 2.1511 -1.19926
lowerneck -10.4753 -3.08132 3.14873
upperneck -5.54888 -4.37135 1.58869
head -0.0348801 -2.21627 -0.154286
rclavicle -4.42793e-014 -2.92213e-014
rhumerus -37.2086 3.57093 -90.6458
rradius 42.7349
rwrist 8.29584
rhand -24.8699 -21.8608
rfingers 7.12502
rthumb 1.6372 -51.8343
lclavicle -4.42793e-014 -2.92213e-014
lhumerus -41.9094 -8.90115 91.9957
lradius 44.2989
lwrist 8.86564
lhand -14.2711 1.51955
lfingers 7.12502
lthumb 11.8677 31.1632
rfemur -16.4939 0.582964 22.7282
rtibia 28.4401
rfoot -26.3984 -19.9562
rtoes -10.8353
lfemur -40.6825 14.4142 -14.6299
ltibia 49.5761
lfoot -19.6579 2.62315
ltoes 20.6536
80
root 6.16301 16.7424 -27.7136 12.0686 3.68368 -5.32319
lowerback -4.21023 3.42283 2.94632
upperback -2.06999 4.45457 0.222155
thorax 0.432982 2.21409 -1.20941
lowerneck -10.504 -3.1799 3.18565
upperneck -5.47842 -4.50837 1.57261
head -0.0106738 -2.28394 -0.170588
rclavicle -3.65515e-014 -1.37161e-014
rhumerus -37.1948 3.56039 -90.4313
rradius 42.9998
rwrist 8.0218
rhand -24.6889 -21.8238
rfingers 7.12502
rthumb 1.81198 -51.7959
lclavicle -3.65515e-014 -1.37161e-014
lhumerus -42.0961 -8.83103 91.8859
lradius 44.3699
lwrist 8.91765
lhand -13.5935 1.68173
lfingers 7.12502
lthumb 12.5211 31.2866
rfemur -15.5154 -0.0101331 22.8018
rtibia 28.0867
rfoot -26.7947 -19.5358
rtoes -10.5704
lfemur -39.9712 13.7502 -13.877
ltibia 48.8696
lfoot -19.5189 3.34611
ltoes 20.4846
81
root 6.20075 16.7338 -27.6641 11.5152 3.77216 -5.50358
lowerback -3.76631 3.50945 3.04956
upperback -1.97731 4.58069 0.293771
thorax 0.288521 2.2758 -1.21245
lowerneck -10.5095 -3.28286 3.21589
upperneck -5.40827 -4.64976 1.55096
head 0.00962352 -2.35386 -0.187221
rclavicle -2.18912e-014 2.78299e-015
rhumerus -37.213 3.53247 -90.1754
rradius 43.2984
rwrist 7.76979
rhand -24.4262 -21.7119
rfingers 7.12502
rthumb 2.06576 -51.6817
lclavicle -2.18912e-014 2.78299e-015
lhumerus -42.298 -8.74865 91.787
lradius 44.462
lwrist 8.9907
lhand -12.8281 1.8801
lfingers 7.12502
lthumb 13.2589 31.4384
rfemur -14.5596 -0.758733 22.8724
rtibia 27.7396
rfoot -27.1898 -18.9575
rtoes -10.2986
lfemur -39.2669 13.0096 -13.0968
ltibia 48.1689
lfoot -19.3821 3.853
ltoes 20.4149
